PathFileType	4	(X/Y/Z)	T1_P1_NoVision_Movement_2_0-680.trc
DataRate	CameraRate	NumFrames	NumMarkers	Units	OrigDataRate	OrigDataStartFrame	OrigNumFrames
60	60	4	27	m	60	595	680
Frame#	Time	RHip			RKnee			RAnkle			RBigToe			RSmallToe			RHeel			LHip			LKnee			LAnkle			LBigToe			LSmallToe			LHeel			Neck			Head			Nose			RShoulder			RElbow			RWrist			RThumb			RIndex			RPinky			LShoulder			LElbow			LWrist			LThumb			LIndex			LPinky		
		X1	Y1	Z1	X2	Y2	Z2	X3	Y3	Z3	X4	Y4	Z4	X5	Y5	Z5	X6	Y6	Z6	X7	Y7	Z7	X8	Y8	Z8	X9	Y9	Z9	X10	Y10	Z10	X11	Y11	Z11	X12	Y12	Z12	X13	Y13	Z13	X14	Y14	Z14	X15	Y15	Z15	X16	Y16	Z16	X17	Y17	Z17	X18	Y18	Z18	X19	Y19	Z19	X20	Y20	Z20	X21	Y21	Z21	X22	Y22	Z22	X23	Y23	Z23	X24	Y24	Z24	X25	Y25	Z25	X26	Y26	Z26	X27	Y27	Z27
596	9.933333333333334	-77.43319940032394	3833.749456787352	-566.87845821419	258.69841087533155	3988.9230552366503	-549.1256552726784	631.6264328270985	4154.275956177736	-526.7762452774767	710.3495462524928	4099.924111720615	-485.07557398214067	713.6803677909331	4122.9894859696615	-563.9162794068623	662.042361061737	4194.2523912866745	-531.4622013694276	-113.82615737146165	3898.036466798091	-354.7145750322336	217.2573201402473	4006.423411416824	-360.36521829734033	577.4319397604688	4194.411783423093	-382.72303383136006	676.1111197734663	4158.726197936668	-346.264442362847	651.1718229001303	4221.862834969036	-328.31765840577157	604.0791718491662	4252.960163364886	-422.6367094571785	-664.907252805108	3692.302952561077	-491.9570751491922	-902.5376364103948	3544.768774723435	-438.0128268742837	-743.0335473433847	3559.726953295924	-418.9679091674819	-566.3656714562986	3657.879619836176	-623.6164527404438	-306.9098849832363	3774.9670758794223	-713.0213265095537	-45.55925178220869	3757.9577136228227	-623.1555887272623	69.03924141736614	3799.799068664961	-559.9279169216237	88.22364186409935	3798.2886033889913	-575.4902184629959	84.31250160559776	3789.2571145476345	-593.1078124320846	-629.9645158467653	3825.5196528571623	-381.45831851095795	-398.12797088300476	3978.9449323904305	-338.98294087184996	-143.1153743148167	3981.742599927452	-257.743859679065	-10.580634991859553	3940.6881535487564	-270.70569218874533	10.082960897972256	3972.4298908331543	-226.53333913439226	-10.53970815122202	4018.8815590612726	-232.35106669374974
597	9.95	-77.54666423527595	3833.8007863054117	-566.9168049753963	257.9494347507934	3984.580432188781	-546.4861626611834	630.0271964336256	4170.870405735402	-539.4266121735378	710.3261009447224	4099.666503969475	-484.9733480101605	708.3194214559903	4090.407809768024	-556.227976749127	661.9348829425758	4193.02726398042	-531.3166564379079	-113.8502532695866	3897.8878813847728	-354.66470813892033	217.23228571768158	4006.330550638853	-360.35618957356616	571.3771684067814	4190.0528177655815	-380.71671174798047	681.6933936441178	4161.924693637789	-345.50631311160123	651.139155778932	4221.825705050908	-328.2755484741608	604.3028196826175	4252.614776506112	-422.5610196132203	-664.9313138475295	3692.2806908124658	-491.8563289149426	-902.5655951750288	3544.838645878009	-438.10988263361594	-742.9403735206232	3559.623520015858	-418.9507104897972	-566.3804378693144	3657.7986333094354	-623.5457560960523	-306.91242561515503	3774.988786961663	-713.0351772950244	-45.711456380933136	3757.3975507516607	-623.050722720184	69.05810967854175	3799.7166412255174	-559.9394298602189	88.31550812532116	3798.211146209183	-575.5161566323103	84.3236656884259	3789.2853369487057	-593.2366399684244	-629.929657430874	3825.3781218359663	-381.35056121910776	-397.95820951333894	3978.5828605505817	-338.96818306328197	-137.94447717931007	3982.09571540538	-257.3757464571449	-10.302820368313853	3940.953870221367	-270.6552100610578	15.055492016460237	3976.369149309114	-227.99343521690116	-11.510965816842138	4000.479390767534	-220.52443017668799
598	9.966666666666667	-77.88858794357775	3861.9147289321622	-574.0602305040657	264.1339640750425	3987.5122002036933	-546.0258246936788	630.082291760067	4171.287143338263	-539.4513009555428	710.3973687647773	4099.5683627473845	-484.9385290964262	708.3699394042054	4090.4753784514846	-556.2413211387542	656.5938364031633	4194.256867986208	-532.1438236886258	-118.50330088491242	3894.555584363995	-353.1490204934329	222.79460961350355	4008.6748949149164	-359.6550906909112	571.0951224234119	4189.5691694991765	-380.6577413642798	685.9582864842728	4190.8105798893785	-350.4964945160014	655.6692290901351	4253.301430432158	-333.5395414021645	610.001363267368	4251.824668170721	-421.8602519305306	-668.9372049874945	3689.7894717208387	-491.026384083752	-902.507263595426	3544.787856674889	-438.0685013541311	-742.9057515869569	3559.54611226994	-418.96792688075413	-566.3472244854343	3657.799538876647	-623.5828262402802	-306.92304068806527	3774.989635023042	-713.0675210245853	-45.854017231715275	3757.067802326767	-623.1286002818026	69.8626714408412	3800.9247195963485	-566.7373945650307	88.29480419684246	3798.1405048590937	-575.6182877100573	80.13030618968625	3789.2285966285867	-593.5820239696586	-629.8988925309735	3825.402383550331	-381.33471663293403	-397.9636065314204	3978.6989001799734	-338.97585536883025	-137.94487414420166	3982.06968568558	-257.3416153109032	-10.392404670041575	3940.4274274506265	-270.4322073757746	13.907537883560579	3957.2495579538454	-216.05851194486806	-11.577596118531224	3999.7711078613356	-220.2836757495299
599	9.983333333333333	-77.42058163995645	3833.822447219339	-566.9155008697104	258.97372598510447	3987.7404055536317	-546.5559026356748	630.2199454241714	4171.82543790762	-539.6667333738988	710.3305241812748	4099.7113822229585	-485.06663563441555	713.5648565187513	4122.8825715612575	-563.9773823221926	662.0874406740346	4194.0033693380055	-531.5744586114095	-113.79931339561455	3897.8417484478987	-354.58345855542433	222.92688723934629	4008.6254248582695	-359.63995080008334	583.885641736984	4197.731726263578	-382.0366466295896	681.6148917897807	4161.928525274374	-345.59531818873756	651.2521112382799	4221.739743066052	-328.37583923851076	610.4506892977946	4252.558379909025	-421.9833245394361	-664.9174534314066	3692.55893103619	-492.0239508088577	-902.4479737267166	3544.745844021048	-438.01901518757404	-742.8567397831149	3559.5657267672545	-418.92300502215875	-566.3415176974261	3657.7145754646413	-623.5425681457389	-306.9451572967733	3775.016448252284	-713.1114889687227	-45.863952912976046	3757.0287200953944	-623.1578685321435	69.78065855958809	3800.994327669651	-566.7602963597772	88.12302321540011	3798.3239155504534	-575.640412580816	80.09039991685077	3789.3710385976765	-593.5492350595644	-629.901184086169	3825.5606004815586	-381.31502509570623	-397.8842632954393	3978.580929609859	-338.90805706704043	-137.81899724965487	3982.3072823628595	-257.457846824258	-5.335608440805699	3944.3230269789933	-272.04725721222786	15.14428201060015	3976.04773565115	-227.93033807735625	-11.292179081604603	4000.4994096830737	-220.69054722506246
